<?xml version="1.0" encoding="UTF-8"?>
<svg version="1.1" viewBox="0 0 2000 2000" width="500" height="500" xmlns="http://www.w3.org/2000/svg">
<path transform="translate(979,663)" d="m0 0h28l17 3 18 6 16 8 11 7 11 9 9 8 11 14 7 10 8 15 6 16 4 17 1 8v31l-4 27-8 32-14 41-24 64-17 47-39 104-2 5 1 7 6 11 7 11 6 7 4 4-4 1h-38l-3-2-12-33-32-86-20-54-16-43-40-108-19-51-17-46-12-32-8-18-7-14-9-13-7-7-4-3v-2h55l-1 5v12l4 17 14 41 2 2 6-11 13-18 7-8 16-14 14-9 15-8 21-7zm-1 3-15 2-15 4-18 8-14 9-10 8-12 12-10 11-11 16-5 8 3 11 16 42 15 40 23 61 26 69 15 40 26 69 18 48 3 7 2 1 18-49 14-38 12-32 16-43 18-49 14-39 8-28 5-25 2-17v-28l-3-19-7-21-9-17-11-14-9-10-7-7-17-12-17-9-14-5-13-3-7-1z" fill="#FEFEFE"/>
<path transform="translate(904,1006)" d="m0 0h2l-2 11-15 42-9 31-5 22-3 20-1 14v20l2 15 6 21 7 16 8 14 10 13 7 8 8 7 16 12 21 11 16 6 20 4 11 1h10l26-3 21-6 13-6 16-9 10-8 10-9 9-9 9-12 8-13 5-8-3-10-18-48-16-43-18-48-4-11v-6l12-31 3-8 3 1 7 21 21 56 34 92 13 35 14 37 10 21 7 11 8 10 5 4v2h-56l-2-2 3-5v-10l-6-24-11-31-4-9-1-1-10 18-9 11-11 12-8 8-13 10-19 11-21 8-12 3-23 3h-16l-24-4-20-7-21-11-14-10-10-9v-2h-2l-7-8-10-13-8-13-8-17-5-15-4-22v-24l3-26 6-29 10-34 17-46z" fill="#FEFEFE"/>
<path transform="translate(953,749)" d="m0 0h48l3 3 13 36 18 48 21 57 8 21-1 7-7 18-8 20-3-3-7-21-3-3-67-1v-3h67l-13-34-13-35-15-40-8-21-1-1-11 31-13 35-7 19-4 2 1-7 7-20 16-43 8-20v-5l-9-16-9-12-11-11z" fill="#FEFEFE"/>
</svg>
